/* XPM */
static char *result[] = {
/* columns rows colors chars-per-pixel */
"64 64 149 2 ",
"   c #2B002E",
".  c #2D0131",
"X  c #320335",
"o  c #360439",
"O  c #3A063E",
"+  c #3B0A3D",
"@  c #3D0741",
"#  c #3E0941",
"$  c #3F1643",
"%  c #420B45",
"&  c #460B4A",
"*  c #490C4D",
"=  c #451144",
"-  c #481246",
";  c #431C45",
":  c #45124A",
">  c #4C134B",
",  c #461D4A",
"<  c #491E4D",
"1  c #51174F",
"2  c #4D0D52",
"3  c #510E56",
"4  c #530F58",
"5  c #4D1151",
"6  c #4D1C51",
"7  c #531355",
"8  c #581756",
"9  c #541A53",
"0  c #581B56",
"q  c #561259",
"w  c #59155C",
"e  c #57195B",
"r  c #5D1A5C",
"t  c #601C5E",
"y  c #4A264C",
"u  c #512755",
"i  c #532D56",
"p  c #58205D",
"a  c #572A5B",
"s  c #59295D",
"d  c #533355",
"f  c #62225D",
"g  c #5D1462",
"h  c #5E1C61",
"j  c #611665",
"k  c #631C64",
"l  c #691F67",
"z  c #661A69",
"x  c #6A1D6B",
"c  c #5D2562",
"v  c #5F3462",
"b  c #662164",
"n  c #692365",
"m  c #632B67",
"M  c #6C236B",
"N  c #642868",
"B  c #6F286A",
"V  c #71266E",
"C  c #732B6C",
"Z  c #603265",
"A  c #623B65",
"S  c #69326D",
"D  c #653A69",
"F  c #6A3B6E",
"G  c #6F2171",
"H  c #742572",
"J  c #752A71",
"K  c #7A2C75",
"L  c #792779",
"P  c #7D2C7A",
"I  c #6E3E71",
"U  c #7D3276",
"Y  c #7F3279",
"T  c #624064",
"R  c #674169",
"E  c #6A446D",
"W  c #664C68",
"Q  c #6C4C6F",
"!  c #6A536C",
"~  c #6B4270",
"^  c #6F4C71",
"/  c #714C74",
"(  c #7A477D",
")  c #774B7B",
"_  c #79487D",
"`  c #725175",
"'  c #79507D",
"]  c #775D79",
"[  c #795E7B",
"{  c #776178",
"}  c #812C7E",
"|  c #803576",
" . c #82337C",
".. c #7C5380",
"X. c #7E5A81",
"o. c #7E6380",
"O. c #7F6A80",
"+. c #863381",
"@. c #8A3584",
"#. c #8E3987",
"$. c #923F87",
"%. c #943F8A",
"&. c #96418B",
"*. c #825C84",
"=. c #9F4595",
"-. c #836485",
";. c #836B85",
":. c #856489",
">. c #89628B",
",. c #866A89",
"<. c #8A6C8D",
"1. c #8B728D",
"2. c #8F6D92",
"3. c #906E93",
"4. c #917393",
"5. c #947997",
"6. c #957398",
"7. c #977C9A",
"8. c #9B7B9E",
"9. c #F153F6",
"0. c #F05CF4",
"q. c #FF63FF",
"w. c #FF69FF",
"e. c #FF73FF",
"r. c #FF7BFF",
"t. c #9A849C",
"y. c #A382A5",
"u. c #A98CAC",
"i. c #A490A5",
"p. c #AF97B1",
"a. c #B39CB4",
"s. c #BCB2BD",
"d. c #FF85FF",
"f. c #FF8AFF",
"g. c #FF93FF",
"h. c #FF9CFF",
"j. c #FFA4FF",
"k. c #FFACFF",
"l. c #FFB5FF",
"z. c #FFBCFF",
"x. c #FFC4FF",
"c. c #FFCCFF",
"v. c #FFD4FF",
"b. c #FFDCFF",
"n. c #FFE3FF",
"m. c #FFECFF",
"M. c #FFF4FF",
"N. c #FFF9FF",
"B. c None",
/* pixels */
"B.B.B.B.B.B.B.B.B.B.B.B.B.B.B.B.B.B.B.B.B.B.B.B.B.B.B.B.B.B.B.B.B.B.B.B.B.B.B.B.B.B.B.B.B.B.B.B.B.B.B.B.B.B.B.B.B.B.B.B.B.B.B.B.",
"B.B.B.B.B.B.B.B.B.B.B.B.B.B.B.B.B.B.B.B.B.B.B.B.B.B.B.B.B.B.B.B.B.B.B.B.B.B.B.B.B.B.B.B.B.B.B.B.B.B.B.B.B.B.B.B.B.B.B.B.B.B.B.B.",
"B.B.B.B.B.B.B.B.B.B.B.B.B.B.B.B.B.B.B.B.B.B.B.B.B.B.B.B.B.B.B.B.B.B.B.B.B.B.B.B.B.B.B.B.B.B.B.B.B.B.B.B.B.B.B.B.B.B.B.B.B.B.B.B.",
"B.B.B.B.B.B.B.B.B.B.B.B.B.B.B.B.B.B.B.B.B.B.M l B.B.B.B.B.B.B.B.B.B.B.B.B.B.B.B.z z B.B.B.B.B.B.B.B.B.B.B.B.B.B.B.B.B.B.B.B.B.B.",
"B.B.B.B.B.B.B.B.B.B.B.B.B.B.B.B.B.B.h B.l 3 5 g B.B.B.B.B.B.B.z k B.B.B.B.B.B.B.G g g x B.j B.B.B.B.B.B.B.B.B.B.B.B.B.B.B.B.B.B.",
"B.B.B.B.B.B.B.B.B.B.B.B.B.B.B.B.B.3 k H 2 2 w B.B.B.B.B.B.B.B.g w B.B.B.B.B.B.B.B.x g g B.x j B.B.B.B.B.B.B.B.B.B.B.B.B.B.B.B.B.",
"B.B.B.B.B.B.B.B.B.B.B.B.B.B.B.k l 2 | M h k B.B.B.%.B.B.B.B.l 4 4 x B.B.B.B.+.B.B.B.L x P +.g H z B.B.B.B.B.B.B.B.B.B.B.B.B.B.B.",
"B.B.B.B.B.B.B.B.B.B.B.B.B.B.q w l q M M H B.B.B.B.B.j B.B.B.g q 4 g B.B.B.z B.B.B.B.B.L H L x L g x B.B.B.B.B.B.B.B.B.B.B.B.B.B.",
"B.B.B.B.B.B.B.B.B.B.B.B.B.M 2 k | w 2 2 w B.B.B.B.B.l q +.B.B.w g B.B.B.g z B.B.B.B.B.M j g G B.z g B.B.B.B.B.B.B.B.B.B.B.B.B.B.",
"B.B.B.B.B.B.B.B.B.B.B.B.7 K 2 H M J K B.B.B.B.B.B.B.B.7 q B.B.j z B.B.j w H B.B.B.B.B.B.B.@.P P L j L j B.B.B.B.B.B.B.B.B.B.B.B.",
"B.B.B.B.B.B.B.B.B.B.B.r 2 &.n 2 2 2 B.B.B.B.B.B.B.B.B.j g B.B.g j B.B.H g B.B.B.B.B.B.B.B.B.x g g } P g G B.B.B.B.B.B.B.B.B.B.B.",
"B.B.B.B.B.B.B.B.B.B. .7 q B.l r l B.B.B.B.B.B.B.B.B.B.H w B.B.q w B.B.j H B.B.B.B.B.B.B.B.B.B.#.+.B.B.g x } B.B.B.B.B.B.B.B.B.B.",
"B.B.B.B.B.B.B.B.B.M w w e 2 * 7 B.B.B.B.B.B.B.B.B.B.B.B.k M B H J B G l B.B.B.B.B.B.B.B.B.B.B.B.z g x G G j B.B.B.B.B.B.B.B.B.B.",
"B.B.B.B.B.B.B.B.B.7 7 C k 8 w B.B.B.B.B.q 2 H B.B.B.B.B.B.B.B.B.B.B.B.B.B.B.B.B.B.B.g g x B.B.B.B.x z L @.g z B.B.B.B.B.B.B.B.B.",
"B.B.B.B.B.B.B.B.B.* 7 B.k t B.B.B.B. .q 8 2 J B.B.B.B.B.B.B.B.B.B.B.B.B.B.B.B.B.B.B.g g g z B.B.B.B.L P B.g z B.B.B.B.B.B.B.B.B.",
"B.B.B.B.B.B.B.K r r w * * k B.B.B.B.k B.B.B.B.B.B.B.B.B.B.B.B.B.B.B.B.B.B.B.B.B.B.B.B.B.B.l z B.B.B.x g g z H H B.B.B.B.B.B.B.B.",
"B.B.B.B.B.B.B.l * &.n r K B.B.B.B.b B.B.B.B.B.B.B.B.B.B.B.B.B.B.B.B.B.B.B.B.B.B.B.B.B.B.B.B.l z B.B.B.P l P =.g j B.B.B.B.B.B.B.",
"B.B.B.B.B.B.B.r * B.k 7 b B.B.B.l B.B.B.B.B.B.B.B.B.B.B.B.B.B.B.B.B.B.B.B.B.B.B.B.B.B.B.B.B.B.l G B.B.H G B.+.4 z B.B.B.B.B.B.B.",
"B.B.B.B.B.B.V J * 2 & 8 B.B.B.B B.B.B.B.B.B.B.B.B.B.B.B.B.B.B.B.B.B.B.B.B.B.B.B.B.B.B.B.B.B.B.B.l B.B.B.g q H q } B.B.B.B.B.B.B.",
"B.B.B.B.B.B.8 b  .h r B.B.B.B.B B.B.B.B.B.B.B.B.B.B.B.B.B.B.B.B.B.B.B.B.B.B.B.B.B.B.B.B.B.B.B.B.B.x B.B.B.z x #.l g B.B.B.B.B.B.",
"B.B.B.B.B.B.7 2 B.B.b B.B.B.V B.B.B.B.B.B.B.B.B.B.B.B.B.B.B.B.B.B.B.B.B.B.B.B.B.B.B.B.B.B.B.B.B.B.l B.B.L M B.B.q g B.B.B.B.B.B.",
"B.B.B.B.B.B.8 * b * 2 B.B.B.J B.* 5 B.B.B.l.x.x.l.B.B.B.B.c.b.b.l.B.c.b.v.B.B.B.B.x.l.B.B.B.x q g B.M B.B.q q J 3 k B.B.B.B.B.B.",
"B.B.B.B.B.b k r 7 2 B.B.B.J B.7 2 8 B.B.B.b.n.n.v.B.B.B.B.b.x.m.z.B.n.N.M.B.B.B.B.N.v.B.B.B.B.w q B.b B.B.B.w g l  .j B.B.B.B.B.",
"B.B.B.B.B.r * B.B.r l B.B.| B.2 B.B.B.B.B.b.c.r.b.B.B.B.g.v.e.b.l.B.b.m.m.l.B.B.h.N.x.B.B.B.B.B.B.j B.B.B.H J B.B.q w B.B.B.B.B.",
"B.B.B.B.B.n & t 5 & B.B.B.K q 8 B.B.B.B.B.v.v.e.v.g.B.B.j.c.e.v.l.B.b.z.h.x.B.B.h.N.x.B.B.B.B.B.B.r B.M B.M 2 M M 2 w B.B.B.B.B.",
"B.B.B.B.B.&.7 7 & 8 B.B.B.B.q B.B.B.B.B.B.v.v.0.v.j.B.B.l.x.q.b.l.B.v.x.d.b.B.B.j.M.z.B.B.B.B.B.B.k B.M B.B.q 2 8 3 P B.B.B.B.B.",
"B.B.B.B.B.2 U | n  .B.B.B.B.r B.B.B.B.B.B.c.b.B.x.z.B.B.x.z.w.b.l.B.v.x.9.v.g.B.j.M.k.B.B.B.B.B.B.B.B.M B.K b t B l 8 B.B.B.B.B.",
"B.B.B.B.B.7 2 B.J 2 B.B.K B.w B.B.B.B.B.B.x.n.B.l.v.B.B.c.j.w.b.l.B.b.x.B.x.l.B.j.M.j.B.B.B.B.B.B.B.j M B.B.* r B.* q B.B.B.B.B.",
"B.B.B.B.B.r & k & 5 B.B.K B.w B.B.B.B.B.B.x.m.B.g.b.B.B.v.g.w.b.l.B.b.x.B.j.c.B.j.m.h.B.B.B.B.B.B.B.r M B.B.7 * q & l B.B.B.B.B.",
"B.B.B.B.B.B.0 M 5 K B.B.B.B.w B.B.B.B.B.B.z.m.r.e.b.d.B.v.d.B.b.l.B.b.x.B.d.v.B.l.n.B.B.B.B.B.B.B.B.w n B.J J 8 b r B.B.B.B.B.B.",
"B.B.B.B.B.8 b B.B.8 7 B.B.B.w B.B.B.B.B.B.z.m.f.B.b.h.e.v.B.B.b.l.B.b.x.B.B.v.d.k.n.B.B.B.B.B.B.B.B.r M B.r * B. .8 0 B.B.B.B.B.",
"B.B.B.B.B.r & e V & 8 B.B.B.w B.B.B.B.B.B.l.M.g.B.c.l.d.v.B.B.n.l.B.b.x.B.B.x.j.l.b.B.B.B.B.B.B.B.B.r M B.r % b * % B.B.B.B.B.B.",
"B.B.B.B.B.B.8 & 8 & J B.B. .r B.B.B.B.B.B.k.M.j.B.l.x.g.c.B.B.n.z.B.b.x.B.B.j.l.k.b.B.B.B.B.B.B.B.B.B.n B.C % > % r B.B.B.B.B.B.",
"B.B.B.B.B.B.t n K B.w B.B. .j B.B.B.B.B.B.j.M.k.B.h.x.g.z.B.B.n.l.B.b.x.B.B.f.b.n.b.B.B.B.B.B.B.B.8 M B.r 1 B.K n b B.B.B.B.B.B.",
"B.B.B.B.B.B.9 & n B.& V B.B.V B.B.B.B.B.B.h.N.l.B.f.n.v.z.B.B.n.z.B.n.z.B.B.B.n.M.b.B.B.B.B.B.B.B.7 B B.r # B.7 + 0 B.B.B.B.B.B.",
"B.B.B.B.B.B.B.* & 8 & U B.B.U r B.B.B.B.B.B.b.k.B.B.l.z.f.B.B.j.f.B.j.g.B.B.B.l.v.x.B.B.B.B.B.B.B.8 b B M + % @ % B.B.B.B.B.B.B.",
"B.B.B.B.B.B.B.B.7 n K r g B.Y b B.B.B.B.B.B.B.B.B.B.B.B.B.B.B.B.B.B.B.B.B.B.B.B.B.B.B.B.B.B.B.B.7 t B.> 8 0 0 9 B.B.B.B.B.B.B.B.",
"B.B.B.B.B.B.B.n 2 r B.* 8 B.B.j w B.B.B.B.B.B.B.B.B.B.B.B.B.B.B.B.B.B.B.B.B.B.B.B.B.B.B.B.B.B.B.% f B.% % B.f & B.B.B.B.B.B.B.B.",
"B.B.B.B.B.B.B.B.7 & r * h K B.B.w B.B.B.B.B.B.B.B.B.B.B.B.B.B.B.B.B.B.B.B.B.B.B.B.B.B.B.B.B.B.1 - B.| = + + o % B.B.B.B.B.B.B.B.",
"B.B.B.B.B.B.B.B.B.k 7 J B.8 w B.U g B.B.B.B.B.B.B.B.B.B.B.B.B.B.B.B.B.B.B.B.B.B.B.B.B.B.B.B.B.- B.1 > n f % > B.B.B.B.B.B.B.B.B.",
"B.B.B.B.B.B.B.B.B.n n Y B.2 8 B.B.J j B.B.B.B.B.B.B.B.B.B.B.B.B.B.B.B.B.B.B.B.B.B.B.B.B.B.B.> B.B.> + B.f - 1 B.B.B.B.B.B.B.B.B.",
"B.B.B.B.B.B.B.B.B.B.2 * b 2 w M M B.H B.B.B.B.B.B.B.B.B.B.B.B.B.B.B.B.B.B.B.B.B.B.B.B.B.B.9 B.B.# 1 # # X O B.B.B.B.B.B.B.B.B.B.",
"B.B.B.B.B.B.B.B.B.B.B.w w P B.k 7 B.B.B B.B.B.B.B.B.B.B.B.B.B.B.B.B.B.B.B.B.B.B.B.B.B.B.p B.B.% o C p + - B.B.B.B.B.B.B.B.B.B.B.",
"B.B.B.B.B.B.B.B.B.B.B.B.M M P J 3 +.k } w g w 8 q 2 2 * 2 * * & & & % % # % : # = & & % r > r X % B.0 > f B.B.B.B.B.B.B.B.B.B.B.",
"B.B.B.B.B.B.B.B.B.B.B.B.b 2 2 q 3 3 3 3 2 3 2 3 2 2 * 2 * & & & & % # # # # @ @ O O o o o X X X X X X + B.B.B.B.B.B.B.B.B.B.B.B.",
"B.B.B.B.B.B.B.B.B.B.B.k q 2 3 4 3 3 3 q 3 3 3 e 2 c I 5 I F 2 X.v & E p * & v + O o o X X X X . X   . X % B.B.B.B.B.B.B.B.B.B.B.",
"B.B.B.B.B.B.B.B.B.B.B.2 2 2 4 4 g S N 3 u.q _ 2.>.h 7.2 2.& 5 o.<.# s.X.6 ,.` E ^ 1.^ $ -., $ ; X . .   . B.B.B.B.B.B.B.B.B.B.B.",
"B.B.B.B.B.B.B.B.B.B.B.4 2 3 4 ) 4.*.>.3 a.( S 8.c 2 2.* 5.D 2 i.:.& t.i.: ,.D v o.< -.i T . ] W d . .   o B.B.B.B.B.B.B.B.B.B.B.",
"B.B.B.B.B.B.B.B.B.B.B.w 2 3 3 m t...:.4 p.y.h F 6.2 2.* <.& 2 :.:.# :.s.# ,./ u 1.u Q W { X { { ;       . B.B.B.B.B.B.B.B.B.B.B.",
"B.B.B.B.B.B.B.B.k 8 * 2 2 3 3 q <.1.X.q *.2.e 4...2 F * F I & a c & a ~ # A o.+ [ ;., ] y   { !             o - B.B.B.B.B.B.B.B.",
"B.B.B.B.B.0 & @ # % & & 2 3 3 4 I ~ c q g 3 3 2 3 2 2 * & & & & # & # # # @ O o o o X O y . y d                   O - B.B.B.B.B.",
"B.B.9 % o o O + # % & 2 2 3 3 4 4 4 4 3 q 3 3 3 2 2 2 * 2 & 2 2 * & & # @ @ + O o o X X X .   X .                     . + > B.B.",
"B.> o X X o o O @ @ & * 2 2 3 3 3 3 4 q w j k l G B.B.B.B.B.B.B.B.B.B.B.B.B.B.0 9 > % o o   X                         .   . - B.",
"B.B.B.> o o O O @ @ & & 2 2 3 3 3 l H B.B.B.B.B.B.B.B.B.B.B.B.B.B.B.B.B.B.B.B.B.B.B.B.B.B.> +   .                     . = B.B.B.",
"B.B.B.B.f % O O @ & & * * 2 2 3 3 J B.B.B.B.B.B.B.B.B.B.B.B.B.B.B.B.B.B.B.B.B.B.B.B.B.B.B.B.1   .                   + B.B.B.B.B.",
"B.B.B.B.B.f O O @ @ @ & * 2 2 2 2 M B.B.B.B.B.B.B.B.B.B.B.B.B.B.B.B.B.B.B.B.B.B.B.B.B.B.B.B.- . .                   B.B.B.B.B.B.",
"B.B.B.B.B.7 O O @ @ & & & * 2 2 q B B.B.B.B.B.B.B.B.B.B.B.B.B.B.B.B.B.B.B.B.B.B.B.B.B.B.B.B.> X X                   - B.B.B.B.B.",
"B.B.B.B.B.% O @ @ & & * 7 h M B.B.B.B.B.B.B.B.B.B.B.B.B.B.B.B.B.B.B.B.B.B.B.B.B.B.B.B.B.B.B.B.B.B.- $ o         . . O B.B.B.B.B.",
"B.B.B.B.B.+ O # * e b B.B.B.B.B.B.B.B.B.B.B.B.B.B.B.B.B.B.B.B.B.B.B.B.B.B.B.B.B.B.B.B.B.B.B.B.B.B.B.B.B.B.- + X .   X B.B.B.B.B.",
"B.B.B.B.r % 9 B.B.B.B.B.B.B.B.B.B.B.B.B.B.B.B.B.B.B.B.B.B.B.B.B.B.B.B.B.B.B.B.B.B.B.B.B.B.B.B.B.B.B.B.B.B.B.B.B., + X 1 B.B.B.B.",
"B.B.B.B.U B.B.B.B.B.B.B.B.B.B.B.B.B.B.B.B.B.B.B.B.B.B.B.B.B.B.B.B.B.B.B.B.B.B.B.B.B.B.B.B.B.B.B.B.B.B.B.B.B.B.B.B.B.B.n B.B.B.B.",
"B.B.B.B.B.B.B.B.B.B.B.B.B.B.B.B.B.B.B.B.B.B.B.B.B.B.B.B.B.B.B.B.B.B.B.B.B.B.B.B.B.B.B.B.B.B.B.B.B.B.B.B.B.B.B.B.B.B.B.B.B.B.B.B.",
"B.B.B.B.B.B.B.B.B.B.B.B.B.B.B.B.B.B.B.B.B.B.B.B.B.B.B.B.B.B.B.B.B.B.B.B.B.B.B.B.B.B.B.B.B.B.B.B.B.B.B.B.B.B.B.B.B.B.B.B.B.B.B.B.",
"B.B.B.B.B.B.B.B.B.B.B.B.B.B.B.B.B.B.B.B.B.B.B.B.B.B.B.B.B.B.B.B.B.B.B.B.B.B.B.B.B.B.B.B.B.B.B.B.B.B.B.B.B.B.B.B.B.B.B.B.B.B.B.B."
};
