/* XPM */
static char *result[] = {
/* columns rows colors chars-per-pixel */
"16 16 85 1 ",
"  c #2B002E",
". c #2B012F",
"X c #2D0331",
"o c #300332",
"O c #300333",
"+ c #330535",
"@ c #320635",
"# c #370738",
"$ c #370739",
"% c #3C083F",
"& c #420947",
"* c #460E47",
"= c #480D4B",
"- c #4C0F4F",
"; c #4D134D",
": c #4D144C",
"> c #441B48",
", c #4B1C4F",
"< c #4E0D52",
"1 c #521057",
"2 c #541654",
"3 c #571956",
"4 c #541359",
"5 c #58165A",
"6 c #59165A",
"7 c #5A175A",
"8 c #5A155D",
"9 c #5B175D",
"0 c #551F5A",
"q c #5B195A",
"w c #5A185B",
"e c #5C185B",
"r c #5C185C",
"t c #5C195C",
"y c #5D195D",
"u c #5E1A5E",
"i c #5F1B5E",
"p c #5E1A5F",
"a c #5F1B5F",
"s c #4B274E",
"d c #4F2553",
"f c #512954",
"g c #57275B",
"h c #5A215F",
"j c #562859",
"k c #5F1960",
"l c #621B62",
"z c #611C60",
"x c #661D66",
"c c #681F66",
"v c #6A1C6C",
"b c #6C1F6E",
"n c #6F1F70",
"m c #5E2662",
"M c #5F2364",
"N c #672066",
"B c #6C206C",
"V c #6C216C",
"C c #6E236D",
"Z c #6D206E",
"A c #643468",
"S c #6A346E",
"D c #673D6A",
"F c #6B386F",
"G c #722173",
"H c #732473",
"J c #6B3670",
"K c #FF92FF",
"L c #FF97FF",
"P c #FF9EFF",
"I c #FFA1FF",
"U c #FFA8FF",
"Y c #FFAFFF",
"T c #FFB5FF",
"R c #FFB7FF",
"E c #FFB8FF",
"W c #FFB9FF",
"Q c #FFBBFF",
"! c #FFBCFF",
"~ c #FFBDFF",
"^ c #FFBEFF",
"/ c #FFC2FF",
"( c #FFC3FF",
") c #FFC4FF",
"_ c None",
/* pixels */
"________________",
"____x9____vG____",
"___lp______Hn___",
"__r5________Zb__",
"__t__________B__",
"_7a__Q_^!____V__",
"_z___YIRTL)__ky_",
"_i6__~PREKW__eq_",
"__u__/UUY_(__2__",
"__wN________3;__",
"___cC_______:___",
"___4MJmADjd>@___",
"__-1FSh0g,fsXO__",
"_%&<8______$. o_",
"_*=__________+#_",
"________________"
};
