/* XPM */
static char *result[] = {
/* columns rows colors chars-per-pixel */
"32 32 84 1 ",
"  c #2B012E",
". c #2D0130",
"X c #320435",
"o c #330936",
"O c #350538",
"+ c #39053D",
"@ c #370D3A",
"# c #3B0A3C",
"$ c #3C0740",
"% c #3E0842",
"& c #3D1840",
"* c #430C45",
"= c #450A4A",
"- c #4A0E4D",
"; c #451145",
": c #441248",
"> c #4C124D",
", c #50164D",
"< c #4E0D53",
"1 c #510E56",
"2 c #520F58",
"3 c #4F1C53",
"4 c #531255",
"5 c #551853",
"6 c #591B57",
"7 c #561459",
"8 c #5A165B",
"9 c #541D5A",
"0 c #5D1A5D",
"q c #611E5F",
"w c #48234B",
"e c #5A245F",
"r c #5A2A5D",
"t c #573559",
"y c #5F1662",
"u c #5B1E60",
"i c #621765",
"p c #631C63",
"a c #661969",
"s c #6B1E6C",
"d c #5F2864",
"f c #5E3762",
"g c #662164",
"h c #692167",
"j c #642F67",
"k c #6D226B",
"l c #642C69",
"z c #70266D",
"x c #613C63",
"c c #6B376F",
"v c #653A68",
"b c #693C6D",
"n c #732472",
"m c #752871",
"M c #7B2979",
"N c #6C3970",
"B c #644367",
"V c #67416B",
"C c #69426C",
"Z c #6F4373",
"A c #734A76",
"S c #754679",
"D c #715073",
"F c #735C74",
"G c #765878",
"H c #835886",
"J c #816283",
"K c #8A618E",
"L c #896C8B",
"P c #9A7A9C",
"I c #9E88A0",
"U c #FF8AFF",
"Y c #FF93FF",
"T c #FF9FFF",
"R c #FFA1FF",
"E c #FFABFF",
"W c #FFB3FF",
"Q c #FFBBFF",
"! c #FFC2FF",
"~ c #FFCDFF",
"^ c #FFD3FF",
"/ c #FFDBFF",
"( c #FFE7FF",
") c None",
/* pixels */
"))))))))))))))))))))))))))))))))",
"))))))))))))))))))))))))))))))))",
")))))))))k78))))))))syM)))))))))",
")))))))0ykk))))8y))))MMsa)))))))",
"))))))k8k8)))p))))i)))kMiM))))))",
")))))pp04))))))yi))))))kMsn)))))",
")))))884))p))))))))))a))ass)))))",
"))))078))h0))))))))))ia))san))))",
"))))00))z))))))))))))))s))mk))))",
")))h88))))))))))))))))))s)iks)))",
")))4h8)m4))))))!)!))))))))smy)))",
")))08))04)Q~Q)!!Y(^)^)))i))ak)))",
")))4>)))))WEQ)QWY~W)^))))))77)))",
"))5zg)))))WE!)QWU^T)^))))h)8u)))",
")))07))))))!Q)QWY^)E~))))p)78)))",
")))08))))))^EYEQY~)W~))))g)47)))",
")))80k)))))^UERQY^)W^)))))q06)))",
")))>88)z)))^)~)EUW)E/)))))>:-)))",
"))))6g)h))))))))))))))))5555))))",
"))))78h)p)))))))))))))))66-;))))",
")))))yyp)))))))))))))))),;*)))))",
"))))))hmpmy)744<->-)))8:,,))))))",
"))))))42274449e9>3*:+OXXXX))))))",
")))))81uSlHHlZAZvICVDxtt@.#)))))",
")))))717LNPcclbreJrxGBwFX X)))))",
"))*#*=<2d741<<<==*#+O@@@    .@))",
")*X+%=<17yp))))))))))*#X.    .@)",
"))5+%=<<8))))))))))))))#     )))",
")))+%=47)))))))))))))));#X X )))",
"))>-)))))))))))))))))))))))#O#))",
"))))))))))))))))))))))))))))))))",
"))))))))))))))))))))))))))))))))"
};
